inDegrees=no
num_controls=7
num_derivatives=13
num_iterations=89
num_multipliers=7
num_parameters=0
num_slacks=7
num_states=26
objective=0.464423
objective_accelerations=0.010000
objective_balance=0.001519
objective_effort=0.006739
objective_height=0.440678
objective_ligament=0.005487
solver_duration=1362.502284
status=Solve_Succeeded
success=true
DataType=double
version=3
OpenSimVersion=4.5
endheader
time	/jointset/ground_pelvis/pelvis_tilt/value	/jointset/ground_pelvis/pelvis_tx/value	/jointset/ground_pelvis/pelvis_ty/value	/jointset/hip_l/hip_flexion_l/value	/jointset/hip_l/hip_adduction_l/value	/jointset/hip_l/hip_rotation_l/value	/jointset/back/lumbar_extension/value	/jointset/patellofemoral_l/patellar_flexion_l/value	/jointset/knee_l/knee_flexion_l/value	/jointset/knee_l/knee_adduction_l/value	/jointset/knee_l/knee_rotation_l/value	/jointset/ankle_l/ankle_angle_l/value	/jointset/subtalar_l/subtalar_angle_l/value	/jointset/ground_pelvis/pelvis_tilt/speed	/jointset/ground_pelvis/pelvis_tx/speed	/jointset/ground_pelvis/pelvis_ty/speed	/jointset/hip_l/hip_flexion_l/speed	/jointset/hip_l/hip_adduction_l/speed	/jointset/hip_l/hip_rotation_l/speed	/jointset/back/lumbar_extension/speed	/jointset/patellofemoral_l/patellar_flexion_l/speed	/jointset/knee_l/knee_flexion_l/speed	/jointset/knee_l/knee_adduction_l/speed	/jointset/knee_l/knee_rotation_l/speed	/jointset/ankle_l/ankle_angle_l/speed	/jointset/subtalar_l/subtalar_angle_l/speed	/forceset/tau_hip_flexion_l	/forceset/tau_hip_adduction_l	/forceset/tau_hip_rotation_l	/forceset/tau_knee_flexion_l	/forceset/tau_ankle_angle_l	/forceset/tau_subtalar_angle_l	/forceset/tau_lumbar_extension	lambda_cid13_p0	lambda_cid13_p1	lambda_cid13_p2	lambda_cid13_p3	lambda_cid13_p4	lambda_cid13_p5	lambda_cid14_p0	/jointset/ground_pelvis/pelvis_tilt/accel	/jointset/ground_pelvis/pelvis_tx/accel	/jointset/ground_pelvis/pelvis_ty/accel	/jointset/hip_l/hip_flexion_l/accel	/jointset/hip_l/hip_adduction_l/accel	/jointset/hip_l/hip_rotation_l/accel	/jointset/back/lumbar_extension/accel	/jointset/patellofemoral_l/patellar_flexion_l/accel	/jointset/knee_l/knee_flexion_l/accel	/jointset/knee_l/knee_adduction_l/accel	/jointset/knee_l/knee_rotation_l/accel	/jointset/ankle_l/ankle_angle_l/accel	/jointset/subtalar_l/subtalar_angle_l/accel	gamma_cid13_p0	gamma_cid13_p1	gamma_cid13_p2	gamma_cid13_p3	gamma_cid13_p4	gamma_cid13_p5	gamma_cid14_p0
0.5	-0.03137146443749187	0.09261548600526538	0.8782404017455002	0.2850745856768187	-0.3825075551280579	-0.4435980006230152	-0.2308931522515238	0.3264051377781614	0.3264051377782374	-0.1741313010042066	-0.1712141274063566	0.08591616794570776	0.02171049163710474	0.03157144880094374	0.07579978341060482	-0.06864139507934813	0.2483002153428923	-0.1620989184585366	0.2624539407269535	-0.1882209469740228	0.714114651758346	0.7141146517583427	0.001491039680209253	-0.009227099737126997	0.449949397742718	0.07012786120396072	-0.01499811832433279	0.03456176746583754	-0.01705425069945178	-0.1621776223983392	0.02588231148561914	-0.01117781976347264	0.06339072004237345	-27.38324573266936	3.506856423662396	6.120953326367085	1.248688223883192	-543.6577935599486	-52.85423761074663	-41.88246250441947	-0.07866896604033526	0.06693741132376656	-0.06824086759851949	-0.1671603793773183	0.1514842366011824	-0.2654678093610705	0.5027598062469081	-0.3833182101635988	-0.3833182101635996	0.002281680557421941	-0.1308251381557577	-0.1042990645728766	0.1322162181536084	2.114479422883226e-08	-1.27889635179772e-07	-4.568626144807788e-08	-2.918374168720434e-08	1.608496980484033e-08	-1.193970452598781e-08	-3.034361012444164e-09
0.51	-0.03105992507521619	0.09337672184728266	0.8775506798864322	0.2875490307524937	-0.3841208343024641	-0.4409877115528777	-0.2327497468332892	0.3335261938683354	0.3335261938683942	-0.1741162441004027	-0.171313532739753	0.09040977920462867	0.02241818151928321	0.03071856686610383	0.07643707260415483	-0.06929076222662661	0.2465577044738686	-0.1605416468362842	0.2595582398800446	-0.1830557384128679	0.7099896609885961	0.7099896609885943	0.001513771371608245	-0.01065848150789309	0.4487039822557484	0.07139012122234067	-0.01603359679467462	0.0364733779817475	-0.01677233166993454	-0.1622191238083208	0.02218765430998121	-0.01096885585758502	0.06436988668946954	-28.56437903987372	3.644994173736543	6.073706427313661	1.758210046298958	-544.0950192664365	-52.54885757816467	-41.79464480047875	-0.09126887914937129	0.06057188363781332	-0.06144882646360574	-0.1824526435424958	0.1601609596494185	-0.3084676320193152	0.5297360259702266	-0.4431247069958237	-0.4431247069955804	0.001258205349172032	-0.1499755540516072	-0.1449942136995066	0.1202570663366894	2.12227587051716e-08	-1.227422950419759e-07	-4.650862852973545e-08	-2.863856548775299e-08	1.869203876450417e-08	-9.515081990592671e-09	-2.632743238698873e-09
0.52	-0.03075744874667789	0.09414402002328887	0.876854831518257	0.290005119478903	-0.3857180782937255	-0.4384077487731418	-0.2345534224004569	0.340602793011489	0.3406027930115304	-0.1741011620213011	-0.17142738806236	0.09488887002409173	0.02313789923617676	0.0297588420534706	0.07701225020839314	-0.06986669690074993	0.2446289454897442	-0.1588918818295458	0.2563886826465858	-0.1776371440544738	0.7052232623542407	0.7052232623542407	0.001496074739728592	-0.01211709757924207	0.44704530985116	0.07253342814698069	-0.01706907526501871	0.0383849884976574	-0.01649041264041752	-0.1622606252183023	0.01849299713434305	-0.01075989195169761	0.06534905333656509	-29.74777276532132	3.783639995246003	6.026250384753427	2.267701395457753	-544.5686293416802	-52.24969437614964	-41.70333006143321	-0.1000375415990018	0.05451509346148851	-0.05355437296766932	-0.2044100023971474	0.1699829134983847	-0.3202390866720062	0.553436965694737	-0.5115997830846702	-0.5115997830846623	-0.00580398409830681	-0.1362719982723351	-0.1869504480964947	0.1084255994056201	2.048485773725203e-08	-1.113966288839844e-07	-4.7127775865505e-08	-2.658062935956032e-08	1.972977442368043e-08	-4.804817440198646e-09	-1.925432002572093e-09
0.53	-0.03046495888568595	0.09491676920365665	0.8761536117630302	0.2924407397676937	-0.387298447894929	-0.4358602063384491	-0.2363018604574409	0.3476283716757609	0.3476283716757539	-0.1740868119975455	-0.1715553524610594	0.09934927088741988	0.02386832025957704	0.02873760074816602	0.07752829634196501	-0.07036253533438561	0.2424349580344327	-0.1571755571450022	0.2531334856414707	-0.1720317429782721	0.6997682076851166	0.6997682076851158	0.001328354490378916	-0.01342438340596575	0.4449607444362989	0.07351596994380845	-0.01798979646059671	0.0401765239124086	-0.0162369101043488	-0.1624757466746667	0.01504234172710226	-0.01058690056710919	0.06622974848826556	-30.85362893907686	3.926778231975203	5.975284381266016	2.731697946291467	-545.0230586553365	-51.94977744043825	-41.60871033932322	-0.1033905389551954	0.04875084488644763	-0.04538670205571146	-0.2359093358512682	0.1734488787923313	-0.3261077683675302	0.5669003331902165	-0.5810974202974735	-0.58109742029761	-0.02911408139583143	-0.1202518453627094	-0.2303278086286333	0.08796933432212536	1.951671210469171e-08	-1.011646814502838e-07	-4.558357052412616e-08	-2.471617475640692e-08	2.088787949593801e-08	-2.381260350846528e-09	-1.456557742289518e-09
0.54	-0.03018272606053893	0.09569439913967642	0.8754478759987682	0.2948526169381808	-0.3888614559227149	-0.4333448054259948	-0.2379936827727413	0.3545956719710474	0.3545956719709921	-0.174075510783492	-0.171694848712124	0.1037866024525098	0.02460752687384573	0.02770743488450106	0.07798840133879675	-0.07076989870778846	0.2398803218289964	-0.1554195671460591	0.2499603781989048	-0.1663139957177769	0.6935675885571443	0.6935675885571425	0.0008863127993279062	-0.01442346805230242	0.4424314502035288	0.07429054632066713	-0.01891051765617298	0.04196805932715966	-0.01598340756828097	-0.16269086813103	0.01159168631986191	-0.01041390918252067	0.06711044363996709	-31.96225393440164	4.070491664711636	5.924123332025367	3.197472982705778	-545.5205402922737	-51.65693865945548	-41.51126985746909	-0.101822453271077	0.04332686611346132	-0.03585936092110289	-0.2765397524221187	0.1779159763782903	-0.3038211741621648	0.5759062025534617	-0.6607126748543732	-0.660712674854365	-0.06066827243857365	-0.07463176219493171	-0.2758962116783181	0.06683251541180782	1.829382769423099e-08	-9.216493345622411e-08	-4.164586860377461e-08	-2.306578481925441e-08	2.21791592379877e-08	-2.487677473711021e-09	-1.251486093579258e-09
0.55	-0.02991093870737414	0.09647632987907578	0.8747385035858543	0.2972374843694026	-0.3904065858429042	-0.4308608345094508	-0.2396277126299065	0.3614974914769693	0.3614974914769384	-0.1740695690910324	-0.1718429139454646	0.1081965517079217	0.02535365665003621	0.02664057022764768	0.07838645273433942	-0.07108999430416074	0.2370627102630509	-0.1535872813718932	0.2468282891002759	-0.1604700845561175	0.6866947586245736	0.6866947586245776	0.0003009242361057644	-0.0151559342278268	0.4394961619688835	0.07492255359371333	-0.01978307216425061	0.04370026588160422	-0.01574447212612747	-0.1629151433868136	0.008154390727321603	-0.01021575255256799	0.06794105154758558	-33.06394111113763	4.20169286404484	5.875377700763044	3.657626516199062	-545.9858655204148	-51.40005570441443	-41.41168931113254	-0.1105332046538125	0.03634577214954178	-0.02789164667558999	-0.2889342751038738	0.1887710218705058	-0.3187301421854357	0.5919172468509908	-0.7158010249328235	-0.7158010249318679	-0.05765721540472293	-0.06751158700917101	-0.3116812454971988	0.05947462280528137	1.835783339706165e-08	-8.19533045434698e-08	-4.191461915889632e-08	-2.151371155414158e-08	2.46991224672322e-08	1.619049048816914e-09	-4.652953640655785e-10
0.5600000000000001	-0.02965010294732995	0.09726190143160554	0.8740263688194407	0.2995932632016804	-0.3919328156765648	-0.4284083499567877	-0.2412026466406802	0.3683275361090707	0.3683275361090642	-0.174069517897633	-0.1719972953489159	0.1125752808577592	0.026105724456868	0.02551711626038841	0.07871656396487758	-0.07132236940774682	0.2340626020401805	-0.1516395498403367	0.243663105422758	-0.1544948264394445	0.6792126137930267	0.6792126137930377	-0.0002917870127439437	-0.01568670207447034	0.4361874290886558	0.0754781524489298	-0.02065562667232657	0.04543247243604868	-0.01550553668397418	-0.1631394186426035	0.004717095134781057	-0.01001759592261553	0.0687716594552033	-34.16883225249997	4.333471292292113	5.826521418455923	4.121357679395008	-546.4999559090321	-51.15157479357526	-41.30993785347211	-0.1131403153522509	0.02973883311262274	-0.01831526236405359	-0.3130390838071606	0.2010051278564006	-0.3104400899401498	0.6021755935561678	-0.7825756546496414	-0.7825756546496205	-0.06213280956408703	-0.03429209641876127	-0.3505851407948134	0.05155083184586653	1.99661072358419e-08	-7.028741852828194e-08	-4.723111268458578e-08	-2.007961829547637e-08	2.869350588111041e-08	1.07815479458156e-08	1.018238262412181e-09
0.5700000000000001	-0.02940069979054174	0.09805042660223645	0.8733123507802052	0.3019181556868105	-0.3934389771250924	-0.4259876355703593	-0.2427173205578124	0.3750798746183689	0.3750798746183293	-0.1740753128042077	-0.172155957804108	0.1169191476373422	0.02686303530971473	0.02436760489471825	0.0789765658333775	-0.07146558905332415	0.2308776215411937	-0.149573072119536	0.2404754079169857	-0.1484384985538043	0.6711631197601117	0.6711631197601297	-0.0008622921608040291	-0.01601242912754884	0.4325294870001526	0.07597508582026478	-0.02145703372118892	0.04711378714012765	-0.01528314600197574	-0.163413395104189	0.001403019141083213	-0.009853712780458325	0.06952837119448789	-35.23147032537762	4.474388830098551	5.774320788614837	4.561164352304706	-546.9445905498386	-50.8854268157782	-41.20598769076237	-0.1152385959667957	0.02234136084510994	-0.009971717158175054	-0.3269633867990674	0.2124340380985588	-0.3235865008107651	0.6075801510487463	-0.8299318950711053	-0.829931895070092	-0.05378934359987585	-0.0267157062618736	-0.3818642359827146	0.04744034295202151	2.141278318859192e-08	-5.895228962837472e-08	-5.22195715842719e-08	-1.861122048933703e-08	3.217714659541352e-08	1.95003995671263e-08	2.437366179884141e-09
0.58	-0.02916266815716874	0.09884119389097781	0.8725973712642134	0.3042100511961794	-0.3949238808076307	-0.4235989285429718	-0.244171387443092	0.3817489590638462	0.3817489590637735	-0.1740866687574973	-0.1723168780691327	0.1212247418974187	0.02762505064690975	0.02324281157735163	0.07916498758696164	-0.07151466475898023	0.2274632068880202	-0.147387996642469	0.2372616336146136	-0.1423734200689328	0.6625618010288495	0.6625618010288741	-0.001403996355782133	-0.01613826404100639	0.4285329251874633	0.07641904931858814	-0.02225844077005175	0.04879510184420653	-0.01506075531997757	-0.1636873715657746	-0.001911056852614717	-0.009689829638301275	0.07028508293377217	-36.29808500307058	4.616115705391444	5.721861886967222	5.007738530990637	-547.4483635832663	-50.62860172391748	-41.09984421489038	-0.1081967056916095	0.01542281012946503	0.0005135256201961938	-0.3589259146446725	0.2247246791096693	-0.3156554492600911	0.6039257134024164	-0.8929405943190949	-0.8929405943191012	-0.0563726189478676	0.005686331505434364	-0.4183090856320854	0.04095685724354588	2.264900608046533e-08	-4.804791418092609e-08	-5.678082259893038e-08	-1.709814699346396e-08	3.499563402654905e-08	2.764147799219211e-08	3.772616894929929e-09
